# Blender 4.0.2
# www.blender.org
mtllib benz_cut.mtl
o Headlight_Left
v 85.439499 98.252235 -128.764343
v 85.403358 98.122002 -128.650528
v 85.472458 98.283928 -128.944321
v 82.578552 98.450447 -131.493210
v 82.687210 98.604263 -131.740936
v 82.633820 98.572281 -131.591354
v 82.911179 98.572281 -132.391449
v 96.032806 113.123444 -127.089493
v 88.245171 108.685555 -130.076538
v 90.400101 114.019554 -132.071442
v 98.625130 117.497322 -132.498169
v 83.241882 109.314972 -135.549225
v 94.549957 107.970802 -125.105225
v 103.980476 116.398514 -126.364059
v 94.133904 118.254753 -138.088196
v 86.879662 104.119652 -129.265747
v 85.780869 114.766312 -137.128098
v 101.953552 107.032021 -120.133934
v 102.657639 111.981972 -122.000832
v 81.759026 104.749062 -134.962479
v 82.057732 115.150360 -142.483429
v 93.621849 103.415565 -124.091782
v 109.741196 115.054352 -120.240623
v 90.762825 118.702805 -142.910141
v 85.962219 100.951256 -128.945694
v 79.700104 109.773689 -141.053909
v 87.637093 118.702805 -148.041443
v 101.590836 102.636803 -119.163170
v 107.522247 106.306587 -116.634834
v 92.992439 100.257843 -123.611710
v 108.471695 110.893837 -117.744316
v 80.852249 101.591339 -134.674438
v 78.302589 105.335800 -140.477829
v 84.500702 118.308067 -152.468674
v 77.555832 110.509781 -146.707947
v 112.354851 110.093727 -115.130669
v 77.374481 102.263397 -140.115128
v 85.300804 98.678963 -128.764343
v 92.544380 97.985550 -123.323685
v 76.201004 106.605286 -145.939850
v 80.041496 115.129028 -148.329483
v 107.980965 102.156738 -115.856056
v 101.345474 99.553749 -118.704422
v 114.744484 113.859535 -115.418694
v 80.233498 99.308372 -134.493042
v 78.761322 114.915642 -152.788696
v 75.123520 107.298706 -150.292389
v 111.266716 105.794533 -114.586594
v 108.343681 99.116356 -115.450699
v 114.957840 113.806190 -115.216003
v 76.723732 100.119148 -139.859055
v 80.158821 99.031013 -134.471710
v 85.226128 98.401596 -128.742996
v 101.164116 97.324135 -118.416367
v 76.072983 103.874283 -143.827560
v 82.505783 117.646660 -154.762299
v 76.553047 111.277878 -151.476532
v 75.400894 102.359428 -143.955612
v 111.757446 101.772690 -114.191849
v 112.226837 98.892326 -114.021187
v 108.610382 96.908081 -115.205322
v 77.822533 114.595612 -158.037354
v 76.499702 112.397995 -156.053101
v 79.828117 116.334488 -157.546631
v 111.853455 96.790726 -114.106522
vn 0.5046 -0.6433 -0.5758
vn 0.4872 -0.6706 -0.5594
vn 0.3763 -0.8007 -0.4661
vn -0.0527 -0.9967 -0.0612
vn 0.0408 -0.9873 -0.1537
vn 0.2492 -0.9032 -0.3496
vn -0.1212 -0.9926 0.0070
vn 0.4397 -0.6218 -0.6482
vn 0.6037 -0.3926 -0.6939
vn 0.4684 -0.6781 -0.5663
vn 0.3456 -0.8218 -0.4530
vn 0.7057 -0.3961 -0.5874
vn 0.5183 -0.3617 -0.7749
vn 0.3891 -0.7331 -0.5579
vn 0.3314 -0.8683 -0.3690
vn 0.6327 -0.2823 -0.7211
vn 0.5224 -0.7073 -0.4762
vn 0.4902 -0.3083 -0.8153
vn 0.4647 -0.5238 -0.7139
vn 0.7458 -0.2949 -0.5974
vn 0.6022 -0.7180 -0.3492
vn 0.5360 -0.2537 -0.8052
vn 0.4514 -0.5697 -0.6868
vn 0.3773 -0.8838 -0.2767
vn 0.6402 -0.2501 -0.7264
vn 0.8006 -0.3920 -0.4532
vn 0.3754 -0.8998 -0.2225
vn 0.4728 -0.1832 -0.8619
vn 0.4766 -0.2171 -0.8519
vn 0.5331 -0.2171 -0.8177
vn 0.4585 -0.4340 -0.7755
vn 0.7544 -0.2624 -0.6017
vn 0.8270 -0.3126 -0.4673
vn 0.4642 -0.8697 -0.1678
vn 0.8449 -0.4432 -0.2995
vn 0.4938 -0.3805 -0.7819
vn 0.8178 -0.3065 -0.4870
vn 0.6445 -0.2367 -0.7271
vn 0.5314 -0.2065 -0.8216
vn 0.8817 -0.3358 -0.3314
vn 0.6717 -0.7143 -0.1962
vn 0.4293 -0.0757 -0.9000
vn 0.4424 -0.1560 -0.8832
vn 0.5725 -0.4173 -0.7058
vn 0.7411 -0.2526 -0.6220
vn 0.6922 -0.7079 -0.1408
vn 0.9018 -0.3629 -0.2347
vn 0.4394 -0.1454 -0.8864
vn 0.3851 -0.0719 -0.9201
vn 0.5696 -0.4157 -0.7090
vn 0.8048 -0.3050 -0.5091
vn 0.7133 -0.2426 -0.6576
vn 0.6499 -0.2307 -0.7241
vn 0.4317 -0.1500 -0.8894
vn 0.8301 -0.3590 -0.4267
vn 0.5416 -0.8244 -0.1645
vn 0.8647 -0.4667 -0.1855
vn 0.8557 -0.3264 -0.4017
vn 0.4023 -0.0105 -0.9154
vn 0.3524 -0.0318 -0.9353
vn 0.3694 -0.0586 -0.9274
vn 0.7055 -0.6979 -0.1235
vn 0.8359 -0.5357 -0.1195
vn 0.6641 -0.6756 -0.3203
vn 0.3203 -0.0184 -0.9472
vt 0.000000 0.000000
s 1
usemtl Polar_White.003
f 2/1/1 4/1/2 1/1/3
f 1/1/3 5/1/4 3/1/5
f 4/1/2 6/1/6 1/1/3
f 5/1/4 7/1/7 3/1/5
f 6/1/6 5/1/4 1/1/3
usemtl Lights_Glass.001
f 8/1/8 9/1/9 10/1/10
f 8/1/8 10/1/10 11/1/11
f 9/1/9 12/1/12 10/1/10
f 13/1/13 9/1/9 8/1/8
f 8/1/8 11/1/11 14/1/14
f 10/1/10 15/1/15 11/1/11
f 9/1/9 16/1/16 12/1/12
f 10/1/10 12/1/12 17/1/17
f 18/1/18 13/1/13 8/1/8
f 13/1/13 16/1/16 9/1/9
f 19/1/19 8/1/8 14/1/14
f 10/1/10 17/1/17 15/1/15
f 16/1/16 20/1/20 12/1/12
f 17/1/17 12/1/12 21/1/21
f 18/1/18 22/1/22 13/1/13
f 19/1/19 18/1/18 8/1/8
f 22/1/22 16/1/16 13/1/13
f 19/1/19 14/1/14 23/1/23
f 17/1/17 24/1/24 15/1/15
f 16/1/16 25/1/25 20/1/20
f 12/1/12 20/1/20 26/1/26
f 17/1/17 21/1/21 27/1/27
f 12/1/12 26/1/26 21/1/21
f 28/1/28 22/1/22 18/1/18
f 29/1/29 18/1/18 19/1/19
f 22/1/22 30/1/30 16/1/16
f 31/1/31 19/1/19 23/1/23
f 17/1/17 27/1/27 24/1/24
f 25/1/25 32/1/32 20/1/20
f 30/1/30 25/1/25 16/1/16
f 20/1/20 33/1/33 26/1/26
f 21/1/21 34/1/34 27/1/27
f 21/1/21 26/1/26 35/1/35
f 29/1/29 28/1/28 18/1/18
f 28/1/28 30/1/30 22/1/22
f 31/1/31 29/1/29 19/1/19
f 36/1/36 31/1/31 23/1/23
f 20/1/20 32/1/32 37/1/37
f 25/1/25 38/1/38 32/1/32
f 30/1/30 39/1/39 25/1/25
f 20/1/20 37/1/37 33/1/33
f 26/1/26 33/1/33 40/1/40
f 21/1/21 41/1/41 34/1/34
f 21/1/21 35/1/35 41/1/41
f 26/1/26 40/1/40 35/1/35
f 42/1/42 28/1/28 29/1/29
f 43/1/43 30/1/30 28/1/28
f 36/1/36 29/1/29 31/1/31
f 44/1/44 36/1/36 23/1/23
f 32/1/32 45/1/45 37/1/37
f 38/1/38 45/1/45 32/1/32
f 39/1/39 38/1/38 25/1/25
f 43/1/43 39/1/39 30/1/30
f 33/1/33 37/1/37 40/1/40
f 41/1/41 46/1/46 34/1/34
f 41/1/41 35/1/35 46/1/46
f 35/1/35 40/1/40 47/1/47
f 48/1/48 42/1/42 29/1/29
f 42/1/42 49/1/49 28/1/28
f 49/1/49 43/1/43 28/1/28
f 48/1/48 29/1/29 36/1/36
f 50/1/50 36/1/36 44/1/44
f 45/1/45 51/1/51 37/1/37
f 38/1/38 52/1/52 45/1/45
f 39/1/39 53/1/53 38/1/38
f 54/1/54 39/1/39 43/1/43
f 37/1/37 55/1/55 40/1/40
f 46/1/46 56/1/56 34/1/34
f 35/1/35 57/1/57 46/1/46
f 35/1/35 47/1/47 57/1/57
f 40/1/40 58/1/58 47/1/47
f 59/1/59 42/1/42 48/1/48
f 60/1/60 49/1/49 42/1/42
f 49/1/49 61/1/61 43/1/43
f 37/1/37 51/1/51 58/1/58
f 38/1/38 53/1/53 52/1/52
f 61/1/61 54/1/54 43/1/43
f 55/1/55 37/1/37 58/1/58
f 55/1/55 58/1/58 40/1/40
f 46/1/46 62/1/62 56/1/56
f 46/1/46 57/1/57 63/1/63
f 57/1/57 47/1/47 63/1/63
f 59/1/59 60/1/60 42/1/42
f 60/1/60 61/1/61 49/1/49
f 46/1/46 63/1/63 62/1/62
f 62/1/62 64/1/64 56/1/56
f 65/1/65 61/1/61 60/1/60
o Headlight_Right
v 269.067780 108.685555 -130.076538
v 261.280151 113.123444 -127.089493
v 266.912842 114.019554 -132.071442
v 274.071075 109.314972 -135.549225
v 258.687805 117.497322 -132.498169
v 262.763000 107.970802 -125.105225
v 270.433289 104.119652 -129.265747
v 271.532074 114.766312 -137.128098
v 253.332474 116.398514 -126.364059
v 263.179047 118.254753 -138.088196
v 255.359406 107.032021 -120.133934
v 275.553925 104.749062 -134.962479
v 275.255219 115.150360 -142.483429
v 254.655319 111.981972 -122.000832
v 263.691101 103.415565 -124.091782
v 277.612854 109.773689 -141.053909
v 271.350739 100.951256 -128.945694
v 266.550140 118.702805 -142.910141
v 269.675873 118.702805 -148.041443
v 247.571762 115.054352 -120.240623
v 264.320526 100.257843 -123.611710
v 255.722122 102.636803 -119.163170
v 249.790695 106.306587 -116.634834
v 279.010376 105.335800 -140.477829
v 276.460693 101.591339 -134.674438
v 272.812256 118.308067 -152.468674
v 279.757111 110.509781 -146.707947
v 248.841263 110.893837 -117.744316
v 281.111938 106.605286 -145.939850
v 279.938477 102.263397 -140.115128
v 264.768585 97.985550 -123.323685
v 272.012146 98.678963 -128.764343
v 277.271454 115.129028 -148.329483
v 244.958099 110.093727 -115.130669
v 255.967468 99.553749 -118.704422
v 249.331985 102.156738 -115.856056
v 277.079468 99.308372 -134.493042
v 278.562317 114.915642 -152.788696
v 282.189423 107.298706 -150.292389
v 242.568466 113.859535 -115.418694
v 248.969269 99.116356 -115.450699
v 246.046234 105.794533 -114.586594
v 281.239960 103.874283 -143.827560
v 256.148834 97.324135 -118.416367
v 280.589233 100.119148 -139.859055
v 274.807159 117.646660 -154.762299
v 281.912048 102.359428 -143.955612
v 280.759918 111.277878 -151.476532
v 248.702576 96.908081 -115.205322
v 245.086121 98.892326 -114.021187
v 245.555511 101.772690 -114.191849
v 256.170166 97.057434 -118.384399
v 279.490417 114.595612 -158.037354
v 280.813263 112.397995 -156.053101
v 277.484833 116.334488 -157.546631
v 245.459503 96.790726 -114.106522
vn -0.6037 -0.3926 -0.6939
vn -0.4397 -0.6218 -0.6482
vn -0.4684 -0.6781 -0.5663
vn -0.7057 -0.3961 -0.5874
vn -0.3456 -0.8218 -0.4530
vn -0.5183 -0.3617 -0.7749
vn -0.6327 -0.2823 -0.7211
vn -0.5224 -0.7073 -0.4762
vn -0.3891 -0.7331 -0.5579
vn -0.3314 -0.8683 -0.3690
vn -0.4902 -0.3082 -0.8153
vn -0.7458 -0.2949 -0.5974
vn -0.6022 -0.7180 -0.3492
vn -0.4647 -0.5238 -0.7139
vn -0.5360 -0.2537 -0.8052
vn -0.8006 -0.3920 -0.4532
vn -0.6402 -0.2501 -0.7264
vn -0.3773 -0.8838 -0.2767
vn -0.3754 -0.8998 -0.2225
vn -0.4514 -0.5697 -0.6868
vn -0.5331 -0.2171 -0.8177
vn -0.4728 -0.1832 -0.8619
vn -0.4766 -0.2171 -0.8519
vn -0.8270 -0.3126 -0.4673
vn -0.7544 -0.2624 -0.6017
vn -0.4638 -0.8699 -0.1678
vn -0.8449 -0.4430 -0.2997
vn -0.4585 -0.4340 -0.7755
vn -0.8817 -0.3358 -0.3314
vn -0.8178 -0.3065 -0.4870
vn -0.5310 -0.2064 -0.8219
vn -0.6454 -0.2442 -0.7238
vn -0.6713 -0.7145 -0.1969
vn -0.4923 -0.3798 -0.7832
vn -0.4424 -0.1560 -0.8832
vn -0.4293 -0.0757 -0.9000
vn -0.7551 -0.2577 -0.6028
vn -0.6925 -0.7076 -0.1407
vn -0.9018 -0.3629 -0.2347
vn -0.5761 -0.4192 -0.7017
vn -0.3851 -0.0719 -0.9201
vn -0.4394 -0.1454 -0.8864
vn -0.8301 -0.3590 -0.4266
vn -0.4165 -0.1468 -0.8972
vn -0.8048 -0.3051 -0.5091
vn -0.5410 -0.8249 -0.1637
vn -0.8557 -0.3263 -0.4017
vn -0.8652 -0.4659 -0.1854
vn -0.3695 -0.0595 -0.9273
vn -0.3524 -0.0318 -0.9353
vn -0.4023 -0.0105 -0.9154
vn -0.7056 -0.6980 -0.1223
vn -0.8367 -0.5347 -0.1186
vn -0.3854 -0.1402 -0.9120
vn -0.6641 -0.6756 -0.3203
vn -0.3203 -0.0184 -0.9472
vt 0.000000 0.000000
s 1
usemtl Lights_Glass.001
f 66/2/66 67/2/67 68/2/68
f 69/2/69 66/2/66 68/2/68
f 67/2/67 70/2/70 68/2/68
f 66/2/66 71/2/71 67/2/67
f 72/2/72 66/2/66 69/2/69
f 69/2/69 68/2/68 73/2/73
f 74/2/74 70/2/70 67/2/67
f 70/2/70 75/2/75 68/2/68
f 72/2/72 71/2/71 66/2/66
f 71/2/71 76/2/76 67/2/67
f 77/2/77 72/2/72 69/2/69
f 68/2/68 75/2/75 73/2/73
f 69/2/69 73/2/73 78/2/78
f 79/2/79 74/2/74 67/2/67
f 72/2/72 80/2/80 71/2/71
f 80/2/80 76/2/76 71/2/71
f 76/2/76 79/2/79 67/2/67
f 77/2/77 69/2/69 81/2/81
f 82/2/82 72/2/72 77/2/77
f 75/2/75 83/2/83 73/2/73
f 73/2/73 84/2/84 78/2/78
f 81/2/81 69/2/69 78/2/78
f 85/2/85 74/2/74 79/2/79
f 86/2/86 80/2/80 72/2/72
f 80/2/80 87/2/87 76/2/76
f 76/2/76 88/2/88 79/2/79
f 89/2/89 77/2/77 81/2/81
f 82/2/82 86/2/86 72/2/72
f 90/2/90 82/2/82 77/2/77
f 83/2/83 84/2/84 73/2/73
f 84/2/84 91/2/91 78/2/78
f 81/2/81 78/2/78 92/2/92
f 79/2/79 93/2/93 85/2/85
f 86/2/86 87/2/87 80/2/80
f 87/2/87 88/2/88 76/2/76
f 88/2/88 93/2/93 79/2/79
f 89/2/89 81/2/81 94/2/94
f 95/2/95 77/2/77 89/2/89
f 96/2/96 86/2/86 82/2/82
f 97/2/97 82/2/82 90/2/90
f 90/2/90 77/2/77 95/2/95
f 78/2/78 91/2/91 98/2/98
f 94/2/94 81/2/81 92/2/92
f 92/2/92 78/2/78 98/2/98
f 93/2/93 99/2/99 85/2/85
f 86/2/86 100/2/100 87/2/87
f 87/2/87 101/2/101 88/2/88
f 88/2/88 99/2/99 93/2/93
f 95/2/95 89/2/89 94/2/94
f 96/2/96 100/2/100 86/2/86
f 97/2/97 96/2/96 82/2/82
f 102/2/102 97/2/97 90/2/90
f 102/2/102 90/2/90 95/2/95
f 98/2/98 91/2/91 103/2/103
f 94/2/94 92/2/92 104/2/104
f 92/2/92 98/2/98 103/2/103
f 99/2/99 105/2/105 85/2/85
f 100/2/100 106/2/106 87/2/87
f 106/2/106 101/2/101 87/2/87
f 101/2/101 107/2/107 88/2/88
f 88/2/88 107/2/107 99/2/99
f 108/2/108 95/2/95 94/2/94
f 96/2/96 109/2/109 100/2/100
f 110/2/110 102/2/102 95/2/95
f 91/2/91 111/2/111 103/2/103
f 112/2/112 94/2/94 104/2/104
f 104/2/104 92/2/92 113/2/113
f 113/2/113 92/2/92 103/2/103
f 114/2/114 106/2/106 100/2/100
f 106/2/106 115/2/115 101/2/101
f 101/2/101 116/2/116 107/2/107
f 112/2/112 108/2/108 94/2/94
f 95/2/95 108/2/108 112/2/112
f 109/2/109 114/2/114 100/2/100
f 110/2/110 95/2/95 112/2/112
f 103/2/103 111/2/111 118/2/117
f 104/2/104 113/2/113 119/2/118
f 113/2/113 103/2/103 119/2/118
f 114/2/114 115/2/115 106/2/106
f 115/2/115 116/2/116 101/2/101
f 117/2/119 114/2/114 109/2/109
f 119/2/118 103/2/103 118/2/117
f 111/2/111 120/2/120 118/2/117
f 114/2/114 121/2/121 115/2/115
o Mercedes_Benz_GLS_580
